<?xml version="1.0" encoding="UTF-8" standalone="no"?>
<!DOCTYPE svg PUBLIC "-//W3C//DTD SVG 1.1//EN" "http://www.w3.org/Graphics/SVG/1.1/DTD/svg11.dtd">
<svg xmlns="http://www.w3.org/2000/svg" version="1.1" viewBox="0.00 0.00 429.00 92.00">
<path fill="#5362ec" d="
  M 58.50 57.08
  L 58.50 32.97
  A 0.75 0.75 0.0 0 0 57.47 32.27
  L 45.56 37.04
  Q 44.83 37.33 44.80 36.54
  L 44.64 31.79
  A 1.60 1.60 0.0 0 0 43.04 30.25
  L 14.52 30.25
  A 0.63 0.62 -73.7 0 1 14.00 29.29
  C 22.56 15.87 38.04 10.60 52.62 16.83
  C 73.95 25.94 77.06 54.68 59.18 68.68
  C 43.89 80.65 23.50 75.72 13.71 59.79
  A 0.36 0.35 74.2 0 1 14.01 59.25
  L 43.86 59.25
  A 0.70 0.70 0.0 0 0 44.56 58.59
  L 44.83 54.09
  Q 44.95 52.19 46.72 52.90
  L 57.93 57.46
  Q 58.50 57.69 58.50 57.08
  Z"
/>
<path fill="#5665c7" d="
  M 330.84 37.87
  C 334.50 34.33 343.16 33.63 345.51 39.38
  C 347.06 43.16 346.28 50.93 346.23 55.20
  A 0.52 0.51 82.8 0 1 345.85 55.70
  Q 344.33 56.12 344.26 54.68
  C 343.93 48.69 346.51 37.36 337.51 37.06
  C 327.65 36.72 330.09 49.27 329.96 55.13
  A 0.63 0.62 2.6 0 1 329.28 55.74
  L 328.38 55.68
  A 0.71 0.70 -87.8 0 1 327.73 54.97
  Q 327.73 41.98 327.94 29.00
  Q 327.96 27.82 328.16 26.83
  A 0.87 0.87 0.0 0 1 329.88 26.99
  L 330.05 37.55
  A 0.47 0.46 -22.8 0 0 330.84 37.87
  Z"
/>
<circle fill="#9173d7" fill-opacity="0.996" cx="111.65" cy="28.61" r="1.49"/>
<path fill="#9173d7" fill-opacity="0.996" d="
  M 101.93 32.32
  C 95.49 27.87 87.38 29.84 83.98 36.29
  C 77.63 48.36 91.75 59.08 102.46 51.10
  A 0.74 0.73 -38.4 0 1 103.45 51.21
  L 104.02 51.87
  Q 104.41 52.32 103.96 52.71
  C 92.89 62.17 75.47 50.50 81.37 36.75
  C 84.91 28.50 97.14 24.60 104.01 31.34
  A 0.74 0.74 0.0 0 1 104.02 32.39
  Q 103.22 33.20 101.93 32.32
  Z"
/>
<path fill="#9173d7" fill-opacity="0.996" d="
  M 189.98 34.56
  L 190.32 31.43
  A 0.76 0.75 -87.0 0 1 191.07 30.75
  L 191.82 30.75
  Q 192.39 30.75 192.45 31.32
  L 192.80 34.56
  Q 192.87 35.24 193.56 35.25
  L 198.43 35.26
  A 0.61 0.61 0.0 0 1 199.02 36.04
  Q 198.71 37.19 197.50 37.04
  Q 195.27 36.76 193.08 37.17
  Q 192.56 37.27 192.55 37.80
  C 192.45 41.76 191.44 50.93 194.36 53.75
  Q 194.78 54.15 195.37 54.09
  L 199.39 53.63
  A 0.51 0.51 0.0 0 1 199.94 54.26
  Q 199.61 55.62 198.01 55.82
  C 187.29 57.19 190.32 44.14 190.23 37.76
  A 0.66 0.66 0.0 0 0 189.66 37.12
  L 186.86 36.73
  A 0.57 0.57 0.0 0 1 186.83 35.60
  L 189.53 35.06
  A 0.56 0.56 0.0 0 0 189.98 34.56
  Z"
/>
<rect fill="#9173d7" fill-opacity="0.996" x="110.50" y="35.25" width="2.22" height="20.50" rx="0.69"/>
<path fill="#9173d7" fill-opacity="0.996" d="
  M 123.46 38.51
  C 128.91 32.54 139.41 34.47 139.49 43.77
  Q 139.54 49.49 139.48 55.26
  Q 139.48 55.75 138.98 55.75
  L 138.03 55.75
  A 0.59 0.58 -89.0 0 1 137.45 55.14
  C 137.63 48.36 139.40 36.38 130.02 36.99
  C 121.07 37.58 122.93 49.29 123.02 55.11
  Q 123.03 55.63 122.52 55.77
  L 121.91 55.94
  A 0.72 0.72 0.0 0 1 121.00 55.24
  L 121.00 36.05
  A 0.90 0.90 0.0 0 1 122.68 35.60
  Q 123.37 36.78 122.74 38.02
  A 0.44 0.44 0.0 0 0 123.46 38.51
  Z"
/>
<path fill="#9173d7" fill-opacity="0.996" d="
  M 145.48 47.27
  C 143.57 32.93 164.08 30.69 164.98 44.07
  Q 165.03 44.80 164.32 44.94
  L 148.80 47.91
  A 0.98 0.97 -23.2 0 0 148.19 49.43
  Q 153.76 57.34 162.09 51.75
  Q 162.62 51.40 163.12 51.80
  L 163.51 52.12
  A 0.60 0.60 0.0 0 1 163.51 53.06
  C 157.11 58.29 146.68 56.30 145.48 47.27
  Z
  M 147.98 46.47
  L 162.63 43.54
  A 0.21 0.21 0.0 0 0 162.79 43.29
  L 162.77 43.17
  A 7.67 7.63 78.7 0 0 153.79 37.15
  L 153.69 37.17
  A 7.67 7.63 78.7 0 0 147.71 46.18
  L 147.73 46.30
  A 0.21 0.21 0.0 0 0 147.98 46.47
  Z"
/>
<path fill="#9173d7" fill-opacity="0.996" d="
  M 174.83 44.01
  C 194.17 47.37 181.02 61.18 168.47 53.70
  Q 167.95 53.39 168.30 52.89
  L 168.89 52.07
  Q 169.26 51.56 169.79 51.91
  C 172.92 54.00 184.32 56.28 182.13 48.87
  A 1.18 1.14 5.7 0 0 181.52 48.15
  C 177.87 46.38 166.50 46.06 169.29 39.03
  C 171.41 33.71 179.64 34.80 183.58 36.99
  A 0.48 0.47 -48.9 0 1 183.63 37.78
  L 182.92 38.31
  A 0.78 0.76 40.0 0 1 182.11 38.37
  Q 177.99 36.12 173.69 37.61
  C 169.41 39.08 171.10 43.36 174.83 44.01
  Z"
/>
<path fill="#9173d7" fill-opacity="0.996" d="
  M 208.56 38.17
  C 209.82 36.92 213.21 34.59 215.06 35.27
  Q 216.19 35.68 215.30 36.79
  A 0.83 0.82 -71.1 0 1 214.72 37.08
  C 206.16 37.49 207.57 47.78 207.83 55.12
  A 0.64 0.63 2.7 0 1 207.11 55.77
  L 206.41 55.67
  Q 205.82 55.59 205.83 54.99
  L 206.06 36.09
  A 0.83 0.83 0.0 0 1 207.70 35.96
  L 208.04 38.00
  Q 208.14 38.57 208.56 38.17
  Z"
/>
<path fill="#5665c7" d="
  M 230.25 35.25
  C 234.15 35.58 238.34 39.89 238.05 43.84
  Q 237.98 44.85 236.99 45.04
  L 222.48 47.84
  A 1.28 1.28 0.0 0 0 221.71 49.88
  Q 227.53 57.38 235.74 51.64
  A 0.65 0.65 0.0 0 1 236.76 52.21
  Q 236.75 52.37 236.76 52.51
  A 0.99 0.99 0.0 0 1 236.39 53.34
  C 232.00 56.78 225.87 57.01 221.78 53.09
  C 214.49 46.11 219.92 34.35 230.25 35.25
  Z
  M 221.16 46.43
  L 235.97 43.55
  A 0.20 0.20 0.0 0 0 236.12 43.31
  L 236.11 43.23
  A 7.74 7.68 79.0 0 0 227.09 37.10
  L 226.98 37.13
  A 7.74 7.68 79.0 0 0 220.91 46.19
  L 220.93 46.27
  A 0.20 0.20 0.0 0 0 221.16 46.43
  Z"
/>
<path fill="#5665c7" d="
  M 256.74 53.76
  A 0.41 0.41 0.0 0 0 256.07 53.46
  Q 251.80 57.06 246.27 55.47
  C 241.27 54.04 240.42 47.66 245.02 45.14
  C 247.66 43.70 252.42 44.32 255.88 44.21
  A 0.62 0.62 0.0 0 0 256.49 43.63
  C 257.05 34.99 248.53 36.44 243.71 39.15
  A 0.66 0.65 -81.4 0 1 242.94 38.10
  C 246.49 34.69 255.00 33.50 257.68 38.62
  C 259.54 42.17 258.76 50.24 258.71 54.92
  A 0.97 0.97 0.0 0 1 256.77 54.93
  L 256.74 53.76
  Z
  M 255.84 45.73
  L 244.20 46.67
  A 0.23 0.23 0.0 0 0 243.99 46.92
  L 244.20 49.62
  A 5.40 5.08 -4.6 0 0 249.99 54.25
  L 251.33 54.14
  A 5.40 5.08 -4.6 0 0 256.30 48.65
  L 256.09 45.95
  A 0.23 0.23 0.0 0 0 255.84 45.73
  Z"
/>
<path fill="#5665c7" d="
  M 269.49 38.30
  C 273.09 34.08 280.45 33.87 283.93 38.78
  A 0.58 0.58 0.0 0 0 284.84 38.82
  Q 289.71 33.11 297.11 36.15
  C 302.06 38.17 301.23 50.13 300.91 54.35
  Q 300.84 55.29 300.35 55.63
  Q 299.84 55.98 299.09 55.71
  Q 298.65 55.55 298.63 55.08
  C 298.55 51.40 299.48 41.33 296.95 38.76
  C 294.28 36.07 288.91 36.96 286.73 39.67
  C 284.11 42.94 284.93 50.96 285.03 55.17
  Q 285.04 55.75 284.46 55.75
  L 283.46 55.75
  Q 282.82 55.75 282.80 55.11
  Q 282.70 52.97 282.62 50.87
  C 282.48 47.06 284.02 38.72 278.83 37.43
  C 267.61 34.63 268.66 47.57 268.95 54.00
  Q 268.99 54.99 268.52 55.60
  A 0.98 0.98 0.0 0 1 266.76 55.02
  C 266.74 51.62 265.86 37.86 267.43 35.48
  A 0.72 0.71 -33.6 0 1 268.73 35.74
  L 269.18 38.22
  Q 269.25 38.60 269.49 38.30
  Z"
/>
<path fill="#5665c7" d="
  M 319.93 51.18
  C 321.29 45.52 309.82 47.80 307.16 43.04
  C 305.90 40.79 307.12 37.36 309.22 36.30
  Q 314.84 33.48 320.99 36.82
  A 0.51 0.50 -65.5 0 1 321.22 37.45
  Q 320.72 38.77 319.74 38.31
  Q 314.95 36.07 310.57 37.72
  A 1.53 1.52 5.9 0 0 309.79 38.35
  C 307.77 41.59 309.51 43.42 312.76 44.06
  Q 316.93 44.87 319.67 46.07
  C 324.45 48.14 322.09 54.34 317.81 55.46
  Q 311.92 57.01 306.63 53.89
  A 1.02 1.02 0.0 0 1 307.05 52.00
  C 308.65 51.84 309.42 53.14 310.75 53.50
  C 313.38 54.21 319.00 55.01 319.93 51.18
  Z"
/>
<path fill="#5665c7" d="
  M 373.04 45.51
  A 10.46 10.46 0.0 0 1 362.58 55.97
  A 10.46 10.46 0.0 0 1 352.12 45.51
  A 10.46 10.46 0.0 0 1 362.58 35.05
  A 10.46 10.46 0.0 0 1 373.04 45.51
  Z
  M 362.7301 54.0987
  A 8.60 8.13 89.0 0 0 370.7088 45.3581
  A 8.60 8.13 89.0 0 0 362.4299 36.9013
  A 8.60 8.13 89.0 0 0 354.4512 45.6419
  A 8.60 8.13 89.0 0 0 362.7301 54.0987
  Z"
/>
<path fill="#5665c7" d="
  M 381.02 37.85
  A 0.55 0.54 -23.0 0 0 381.92 38.21
  Q 386.59 34.19 391.71 35.41
  C 407.30 39.12 397.23 64.91 381.85 52.84
  A 0.48 0.48 0.0 0 0 381.07 53.21
  L 380.84 62.99
  A 0.56 0.56 0.0 0 1 380.20 63.53
  L 379.34 63.41
  Q 378.68 63.32 378.69 62.66
  L 378.89 36.34
  A 1.09 1.08 74.9 0 1 379.41 35.43
  Q 380.27 34.91 380.76 35.57
  Q 381.00 35.89 380.99 36.50
  Q 380.97 37.26 381.02 37.85
  Z
  M 389.5217 54.1557
  A 8.65 8.13 88.2 0 0 397.3760 45.2546
  A 8.65 8.13 88.2 0 0 388.9783 36.8643
  A 8.65 8.13 88.2 0 0 381.1240 45.7654
  A 8.65 8.13 88.2 0 0 389.5217 54.1557
  Z"
/>
</svg>
